<?xml version="1.0" encoding="UTF-8" standalone="no"?>
<!-- Created with Inkscape (http://www.inkscape.org/) -->

<svg
   xmlns:dc="http://purl.org/dc/elements/1.1/"
   xmlns:cc="http://creativecommons.org/ns#"
   xmlns:rdf="http://www.w3.org/1999/02/22-rdf-syntax-ns#"
   xmlns:svg="http://www.w3.org/2000/svg"
   xmlns="http://www.w3.org/2000/svg"
   xmlns:sodipodi="http://sodipodi.sourceforge.net/DTD/sodipodi-0.dtd"
   xmlns:inkscape="http://www.inkscape.org/namespaces/inkscape"
   width="188.47"
   height="271.38"
   version="1.1"
   viewBox="0 0 188.47 271.38"
   xml:space="preserve"
   id="svg70"
   sodipodi:docname="vonderhof-bouwdelen.svg"
   inkscape:version="0.92.3 (2405546, 2018-03-11)"><sodipodi:namedview
     pagecolor="#ffffff"
     bordercolor="#666666"
     borderopacity="1"
     objecttolerance="10"
     gridtolerance="10"
     guidetolerance="10"
     inkscape:pageopacity="0"
     inkscape:pageshadow="2"
     inkscape:window-width="1920"
     inkscape:window-height="1017"
     id="namedview72"
     showgrid="false"
     inkscape:zoom="0.86962929"
     inkscape:cx="-107.57513"
     inkscape:cy="135.69"
     inkscape:window-x="-8"
     inkscape:window-y="-8"
     inkscape:window-maximized="1"
     inkscape:current-layer="svg70" /><defs
     id="defs14"><clipPath
       id="d"><path
         d="m327.93 287.02h-314.94v-277.01h314.94v277.01"
         clip-rule="evenodd"
         id="path2" /></clipPath><clipPath
       id="c"><path
         d="m327.93 287.02h-314.94v-277.01h314.94v277.01"
         clip-rule="evenodd"
         id="path5" /></clipPath><clipPath
       id="b"><path
         d="m327.93 287.02h-314.94v-277.01h314.94v277.01"
         clip-rule="evenodd"
         id="path8" /></clipPath><clipPath
       id="a"><path
         d="m327.93 287.02h-314.94v-277.01h314.94v277.01"
         clip-rule="evenodd"
         id="path11" /></clipPath></defs><g
     transform="matrix(1.0158 -2.6464 2.6464 1.0158 -507.66 412.76)"
     id="g66"><path
       d="m152.82 163.81 0.41 1.445 4.588-1.342-0.022-1.549 3.807-1.109 1.556 5.273h-1.858v15.157h-1.48l-0.02-3.121-2.23 0.015 0.018 1.415-31.521 9.247-4.717-16.195 31.469-9.236"
       fill="#ff090f"
       fill-rule="evenodd"
       id="path16"
       style="fill:#ff9900;fill-opacity:1" /><path
       d="m161.3 166.52h1.858l13.363-0.013 3.467-3e-3v-1e-3l8.563-8e-3v15.182h-27.251v-15.157"
       fill="#2b31e5"
       fill-rule="evenodd"
       id="path18"
       style="fill:#003049;fill-opacity:1" /><g
       transform="rotate(69 141.19 175.81)"
       id="g28"><g
         clip-path="url(#d)"
         id="g26"><g
           transform="scale(.35278)"
           id="g24"><text
   transform="translate(393.73 505.32)"
   fill="#ffffff"
   font-family="Arial"
   font-size="19.438px"
   id="text22"><tspan
     x="0"
     y="0"
     id="tspan20">A</tspan></text>


</g></g></g><g
       transform="rotate(69 174.67 174.52)"
       id="g38"><g
         clip-path="url(#c)"
         id="g36"><g
           transform="scale(.35278)"
           id="g34"><text
   transform="translate(488.44 501.66)"
   fill="#ffffff"
   font-family="Arial"
   font-size="19.438px"
   id="text32"><tspan
     x="0"
     y="0"
     id="tspan30">B</tspan></text>


</g></g></g><path
       d="m188.55 181.68v-15.182l6.874-8.685 14.559-4.711 3.212 13.142 6e-3 0.022-6.449 1.62 0.451 1.795 4.456-1.118 2.917 12.119h-8.633l1e-3 -1.68h-2.369v2.678h-15.025"
       fill="#00f5fb"
       fill-rule="evenodd"
       id="path40"
       style="fill:#d62828;fill-opacity:1" /><g
       transform="rotate(69 199.47 169.28)"
       id="g50"><g
         clip-path="url(#b)"
         id="g48"><g
           transform="scale(.35278)"
           id="g46"><text
   transform="translate(558.3 486.82)"
   fill="#ffffff"
   font-family="Arial"
   font-size="19.438px"
   id="text44"><tspan
     x="0"
     y="0"
     id="tspan42">C</tspan></text>


</g></g></g><path
       d="m209.98 153.1-14.559 4.711 0.05-0.065-6.924-28.448v-9.163l0.141-0.042 0.794-0.187 0.798-0.172 0.801-0.157 0.803-0.139 0.806-0.126 0.808-0.11 0.811-0.093 0.812-0.079 0.813-0.062 0.815-0.046 0.815-0.031 0.816-0.015 0.815 1e-3 0.816 0.017 0.815 0.032 0.815 0.048 8.339 34.126"
       fill="#75f405"
       fill-rule="evenodd"
       id="path52"
       style="fill:#cccccc;fill-opacity:1" /><path
       d="m188.55 120.14v9.163l-0.284-1.167-5.161 1.253-2.064-7.048 7.509-2.201"
       fill="#75f405"
       fill-rule="evenodd"
       id="path54"
       style="fill:#cccccc;fill-opacity:1" /><g
       transform="rotate(69 198.36 136.16)"
       id="g64"><g
         clip-path="url(#a)"
         id="g62"><g
           transform="scale(.35278)"
           id="g60"><text
   transform="translate(555.02 392.93)"
   fill="#ffffff"
   font-family="Arial"
   font-size="19.438px"
   id="text58"><tspan
     x="0"
     y="0"
     id="tspan56">D</tspan></text>


</g></g></g></g><metadata
     id="metadata68"><rdf:RDF><cc:Work
         rdf:about=""><dc:title /><dc:format>image/svg+xml</dc:format><dc:type
           rdf:resource="http://purl.org/dc/dcmitype/StillImage" /></cc:Work></rdf:RDF></metadata></svg>